<svg width="52" height="20" viewBox="0 0 52 20" fill="none" xmlns="http://www.w3.org/2000/svg">
<path d="M7.46094 17.4102C6.78385 17.4102 6.11328 17.332 5.44922 17.1758C4.79818 17.0195 4.17318 16.7917 3.57422 16.4922C2.97526 16.1797 2.44792 15.7695 1.99219 15.2617C1.53646 14.7539 1.28906 14.1484 1.25 13.4453V12.625V6.39453C1.25 6.02995 1.38021 5.73047 1.64062 5.49609C1.91406 5.2487 2.23307 5.125 2.59766 5.125C3.37891 5.1901 3.80208 5.61328 3.86719 6.39453V12.8398C3.89323 13.2435 4.04297 13.582 4.31641 13.8555C4.60286 14.1159 4.91536 14.3242 5.25391 14.4805C5.60547 14.6367 5.96354 14.7539 6.32812 14.832C6.70573 14.9102 7.08333 14.9492 7.46094 14.9492C7.83854 14.9492 8.20964 14.9102 8.57422 14.832C8.95182 14.7539 9.3099 14.6367 9.64844 14.4805C10 14.3242 10.3125 14.1159 10.5859 13.8555C10.8724 13.582 11.0286 13.2435 11.0547 12.8398V6.39453C11.0547 6.02995 11.1849 5.73047 11.4453 5.49609C11.7188 5.2487 12.0378 5.125 12.4023 5.125C13.1836 5.1901 13.6133 5.61328 13.6914 6.39453V12.625V13.4453C13.6523 14.1484 13.3984 14.7539 12.9297 15.2617C12.474 15.7695 11.9466 16.1797 11.3477 16.4922C10.7487 16.7917 10.1172 17.0195 9.45312 17.1758C8.80208 17.332 8.13802 17.4102 7.46094 17.4102ZM33.9062 5.125C34.2708 5.125 34.5833 5.2487 34.8438 5.49609C35.1042 5.73047 35.2409 6.02995 35.2539 6.39453V6.76562C35.2409 7.29948 35.2734 7.79427 35.3516 8.25C35.4427 8.69271 35.651 9.08984 35.9766 9.44141C36.3021 9.79297 36.7122 9.98177 37.207 10.0078H42.6953V6.43359C42.6953 6.06901 42.8255 5.76953 43.0859 5.53516C43.3594 5.28776 43.6784 5.16406 44.043 5.16406C44.8242 5.22917 45.2539 5.65234 45.332 6.43359V10.9648C45.332 12.0065 45.1888 12.9896 44.9023 13.9141C44.6419 14.7344 44.2122 15.431 43.6133 16.0039C43.0273 16.5638 42.2786 16.8698 41.3672 16.9219H34.3359C33.9844 16.9089 33.6849 16.7852 33.4375 16.5508C33.2031 16.3034 33.0794 16.0039 33.0664 15.6523C33.0664 15.2878 33.1836 14.9753 33.418 14.7148C33.6654 14.4544 33.9714 14.3177 34.3359 14.3047H40.7031C41.1979 14.2786 41.6081 14.0898 41.9336 13.7383C42.2331 13.4128 42.4349 13.0417 42.5391 12.625H36.543C35.6315 12.5729 34.8763 12.2669 34.2773 11.707C33.6914 11.1341 33.2682 10.4375 33.0078 9.61719C32.7604 8.79688 32.6302 7.92448 32.6172 7V6.39453C32.6302 6.04297 32.7604 5.75 33.0078 5.51562C33.2552 5.26823 33.5547 5.13802 33.9062 5.125Z" fill="white"/>
<path d="M20.4297 4.91016C20.8854 4.91016 21.3281 4.98828 21.7578 5.14453C22.2005 5.30078 22.6237 5.52865 23.0273 5.82812C23.0924 5.89323 23.1641 5.95833 23.2422 6.02344C23.3073 5.95833 23.3789 5.89323 23.457 5.82812C23.8607 5.52865 24.2773 5.30078 24.707 5.14453C25.1497 4.98828 25.5924 4.91016 26.0352 4.91016C26.4909 4.91016 26.9336 4.98828 27.3633 5.14453C27.806 5.30078 28.2227 5.53516 28.6133 5.84766C29.0169 6.14714 29.3685 6.55078 29.668 7.05859C29.9805 7.56641 30.1367 8.17188 30.1367 8.875V15.9258C30.0586 16.707 29.6289 17.1302 28.8477 17.1953C28.4831 17.1953 28.1641 17.0781 27.8906 16.8438C27.6302 16.5964 27.5 16.2904 27.5 15.9258V9.03125C27.5 8.71875 27.4414 8.45833 27.3242 8.25C27.207 8.02865 27.0768 7.85938 26.9336 7.74219C26.7904 7.61198 26.6406 7.52083 26.4844 7.46875C26.3281 7.40365 26.1719 7.37109 26.0156 7.37109C25.8594 7.37109 25.7031 7.40365 25.5469 7.46875C25.4036 7.52083 25.2604 7.61198 25.1172 7.74219C24.974 7.85938 24.8438 8.02865 24.7266 8.25C24.6094 8.45833 24.5443 8.71875 24.5312 9.03125V15.9258C24.4531 16.707 24.0234 17.1302 23.2422 17.1953C22.8776 17.1953 22.5586 17.0781 22.2852 16.8438C22.0247 16.5964 21.8945 16.2904 21.8945 15.9258V9.03125C21.8945 8.71875 21.8359 8.45833 21.7188 8.25C21.6016 8.02865 21.4714 7.85938 21.3281 7.74219C21.1849 7.61198 21.0352 7.52083 20.8789 7.46875C20.7227 7.40365 20.5664 7.37109 20.4102 7.37109C20.2539 7.37109 20.0977 7.40365 19.9414 7.46875C19.7982 7.52083 19.6549 7.61198 19.5117 7.74219C19.3685 7.85938 19.2383 8.02865 19.1211 8.25C19.0039 8.45833 18.9388 8.71875 18.9258 9.03125V15.9258C18.8607 16.707 18.4375 17.1302 17.6562 17.1953C17.2917 17.1953 16.9727 17.0781 16.6992 16.8438C16.4388 16.5964 16.3086 16.2904 16.3086 15.9258V8.875C16.3346 8.17188 16.4974 7.56641 16.7969 7.05859C17.0964 6.55078 17.4479 6.14714 17.8516 5.84766C18.2552 5.53516 18.6719 5.30078 19.1016 5.14453C19.5443 4.98828 19.987 4.91016 20.4297 4.91016Z" fill="#FFA500"/>
</svg>
