<svg width="80" height="80" viewBox="0 0 80 80" fill="none" xmlns="http://www.w3.org/2000/svg">
<g filter="url(#filter0_d_0_1)">
<circle cx="40" cy="30" r="30" fill="#10093D"/>
</g>
<path d="M52.2776 17.4134C52.1509 17.3133 52.0027 17.2437 51.8447 17.2103C51.6867 17.1768 51.523 17.1803 51.3666 17.2204L34.3666 21.4704C34.1367 21.5278 33.9325 21.6603 33.7866 21.847C33.6407 22.0337 33.5614 22.2638 33.5614 22.5008V37.1229C32.6754 36.5312 31.617 36.2526 30.5546 36.3313C29.4921 36.4101 28.4864 36.8416 27.6972 37.5574C26.908 38.2731 26.3807 39.2321 26.199 40.2819C26.0172 41.3316 26.1915 42.4121 26.6941 43.3514C27.1967 44.2908 27.9988 45.0353 28.973 45.4667C29.9472 45.898 31.0376 45.9914 32.071 45.732C33.1043 45.4727 34.0214 44.8754 34.6764 44.0352C35.3315 43.195 35.687 42.1599 35.6864 41.0945V28.6423L50.5614 24.9236V32.8729C49.6754 32.2812 48.617 32.0026 47.5546 32.0814C46.4921 32.1601 45.4864 32.5916 44.6972 33.3074C43.908 34.0231 43.3807 34.9821 43.199 36.0319C43.0172 37.0816 43.1915 38.1621 43.6941 39.1014C44.1967 40.0408 44.9988 40.7853 45.973 41.2167C46.9472 41.648 48.0376 41.7414 49.071 41.482C50.1043 41.2227 51.0214 40.6254 51.6764 39.7852C52.3315 38.945 52.687 37.9099 52.6864 36.8445V18.2508C52.6862 18.0893 52.6493 17.9301 52.5785 17.785C52.5077 17.6399 52.4048 17.5129 52.2776 17.4134Z" fill="#FFA500"/>
<defs>
<filter id="filter0_d_0_1" x="0" y="0" width="80" height="80" filterUnits="userSpaceOnUse" color-interpolation-filters="sRGB">
<feFlood flood-opacity="0" result="BackgroundImageFix"/>
<feColorMatrix in="SourceAlpha" type="matrix" values="0 0 0 0 0 0 0 0 0 0 0 0 0 0 0 0 0 0 127 0" result="hardAlpha"/>
<feOffset dy="10"/>
<feGaussianBlur stdDeviation="5"/>
<feComposite in2="hardAlpha" operator="out"/>
<feColorMatrix type="matrix" values="0 0 0 0 0 0 0 0 0 0 0 0 0 0 0 0 0 0 0.7 0"/>
<feBlend mode="normal" in2="BackgroundImageFix" result="effect1_dropShadow_0_1"/>
<feBlend mode="normal" in="SourceGraphic" in2="effect1_dropShadow_0_1" result="shape"/>
</filter>
</defs>
</svg>
